<?xml version="1.0" encoding="utf-8"?>
<!-- Generator: Adobe Illustrator 23.0.5, SVG Export Plug-In . SVG Version: 6.00 Build 0)  -->
<svg version="1.1" xmlns="http://www.w3.org/2000/svg" xmlns:xlink="http://www.w3.org/1999/xlink" x="0px" y="0px"
	 viewBox="0 0 861 208" style="enable-background:new 0 0 861 208;" xml:space="preserve">
<style type="text/css">
	.st0{display:none;}
	.st1{display:inline;}
	.st2{enable-background:new    ;}
	.st3{fill:#878787;stroke:#B2B2B2;stroke-width:20;stroke-miterlimit:10;}
	.st4{display:inline;enable-background:new    ;}
	.st5{fill:#878787;stroke:#B2B2B2;stroke-miterlimit:10;}
	.st6{display:inline;fill:#878787;stroke:#B2B2B2;stroke-width:20;stroke-miterlimit:10;}
	.st7{fill:#C6C6C6;}
	.st8{fill:#FF0000;}
	.st9{fill:none;}
</style>
<g id="Capa_1" class="st0">
	<title>Mesa de trabajo 1</title>
	<g class="st1">
		<g class="st2">
			<path class="st3" d="M125.8,110.3v68.2h-10.6l-7.3-18c-7.7,13.3-19.8,20-36,20c-18.2,0-31.7-6.9-40.7-20.7
				c-9-13.8-13.4-29.8-13.4-47.9c0-19.2,5-35.5,15-48.8c10-13.3,24-20,41.9-20c13.4,0,24.4,3.9,33.1,11.7
				c8.7,7.8,14.1,17.5,16.4,29.1l-20.9,3.7c-3.9-16.3-13.2-24.4-28-24.4c-9.4,0-17.1,3.8-23.1,11.5c-6,7.7-8.9,19.5-8.9,35.4
				c0,33.7,10.5,50.5,31.6,50.5c8.2,0,15-2.8,20.4-8.5s8.1-13.2,8.1-22.5H75.7v-19.3H125.8z"/>
			<path class="st3" d="M236.2,178.5H215c-1.9-6-3-12.6-3.4-19.9c-5.9,14.6-17.1,22-33.4,22c-9.8,0-17.7-2.9-23.7-8.6
				s-8.9-13-8.9-21.7c0-22.7,19.9-34,59.7-34c1.6,0,3.7,0,6.3,0.1v-7.4c0-10.2-7-15.3-20.9-15.3c-13.5,0-21.2,5.1-23,15.3l-18.9-2.8
				c1-8.2,5.3-15,12.7-20.3c7.4-5.3,18.2-8,32.2-8c7.6,0,13.8,0.6,18.7,1.9c4.8,1.3,8.9,3.4,12.2,6.4s5.6,6.3,6.9,9.9
				c1.3,3.5,1.9,9.6,1.9,18v44.5C233.2,165,234.2,171.7,236.2,178.5z M211.6,128.3c-28.8,0-43.2,6.9-43.2,20.6
				c0,4.1,1.4,7.6,4.3,10.5c2.9,2.9,7.3,4.3,13.1,4.3c8.5,0,14.9-2.7,19.2-8.1c4.3-5.4,6.5-11.5,6.5-18.3V128.3z"/>
			<path class="st3" d="M407.2,178.5h-23.3v-61.4c0-12.8-5.7-19.1-17-19.1c-6.6,0-11.8,2.4-15.8,7.2c-3.9,4.8-5.9,12-5.9,21.6v51.8
				h-23.6v-61.4c0-13-5.3-19.4-15.9-19.4c-6.4,0-11.9,2.6-16.3,7.8c-4.4,5.2-6.6,12.3-6.6,21.3v51.8h-22.9V79.9h21.6v21
				c7-15.4,18-23,32.9-23c14.5,0,24,7.7,28.3,23c7.9-15.4,18.9-23,32.9-23c9.5,0,17.2,3,22.9,8.9c5.8,5.9,8.7,13.3,8.7,22.1V178.5z"
				/>
			<path class="st3" d="M496.6,147.1l20.1,2.7c-2.6,8.9-7.7,16.3-15.2,22.1c-7.6,5.8-17,8.7-28.4,8.7c-13.7,0-24.7-4.6-33-13.8
				c-8.3-9.2-12.5-21.6-12.5-37.3c0-14.9,4.2-27.2,12.6-37s19.8-14.6,34.2-14.6c14.1,0,24.9,4.8,32.6,14.5
				c7.7,9.6,11.5,22,11.5,37.1l-0.1,2.5h-67.7c0,6.7,0.6,12.1,1.9,16.1c1.3,4,3.8,7.6,7.6,10.5c3.8,3,8.5,4.5,14.2,4.5
				C485.4,163.1,492.8,157.7,496.6,147.1z M495.3,117.6c-0.1-7.1-2.2-12.9-6.4-17.4s-9.4-6.7-15.6-6.7c-6.1,0-11.2,2.1-15.3,6.3
				s-6.5,10.1-7.2,17.8H495.3z"/>
		</g>
		<g class="st2">
			<path class="st3" d="M125.8,110.3v68.2h-10.6l-7.3-18c-7.7,13.3-19.8,20-36,20c-18.2,0-31.7-6.9-40.7-20.7
				c-9-13.8-13.4-29.8-13.4-47.9c0-19.2,5-35.5,15-48.8c10-13.3,24-20,41.9-20c13.4,0,24.4,3.9,33.1,11.7
				c8.7,7.8,14.1,17.5,16.4,29.1l-20.9,3.7c-3.9-16.3-13.2-24.4-28-24.4c-9.4,0-17.1,3.8-23.1,11.5c-6,7.7-8.9,19.5-8.9,35.4
				c0,33.7,10.5,50.5,31.6,50.5c8.2,0,15-2.8,20.4-8.5s8.1-13.2,8.1-22.5H75.7v-19.3H125.8z"/>
			<path class="st3" d="M236.2,178.5H215c-1.9-6-3-12.6-3.4-19.9c-5.9,14.6-17.1,22-33.4,22c-9.8,0-17.7-2.9-23.7-8.6
				s-8.9-13-8.9-21.7c0-22.7,19.9-34,59.7-34c1.6,0,3.7,0,6.3,0.1v-7.4c0-10.2-7-15.3-20.9-15.3c-13.5,0-21.2,5.1-23,15.3l-18.9-2.8
				c1-8.2,5.3-15,12.7-20.3c7.4-5.3,18.2-8,32.2-8c7.6,0,13.8,0.6,18.7,1.9c4.8,1.3,8.9,3.4,12.2,6.4s5.6,6.3,6.9,9.9
				c1.3,3.5,1.9,9.6,1.9,18v44.5C233.2,165,234.2,171.7,236.2,178.5z M211.6,128.3c-28.8,0-43.2,6.9-43.2,20.6
				c0,4.1,1.4,7.6,4.3,10.5c2.9,2.9,7.3,4.3,13.1,4.3c8.5,0,14.9-2.7,19.2-8.1c4.3-5.4,6.5-11.5,6.5-18.3V128.3z"/>
			<path class="st3" d="M407.2,178.5h-23.3v-61.4c0-12.8-5.7-19.1-17-19.1c-6.6,0-11.8,2.4-15.8,7.2c-3.9,4.8-5.9,12-5.9,21.6v51.8
				h-23.6v-61.4c0-13-5.3-19.4-15.9-19.4c-6.4,0-11.9,2.6-16.3,7.8c-4.4,5.2-6.6,12.3-6.6,21.3v51.8h-22.9V79.9h21.6v21
				c7-15.4,18-23,32.9-23c14.5,0,24,7.7,28.3,23c7.9-15.4,18.9-23,32.9-23c9.5,0,17.2,3,22.9,8.9c5.8,5.9,8.7,13.3,8.7,22.1V178.5z"
				/>
			<path class="st3" d="M496.6,147.1l20.1,2.7c-2.6,8.9-7.7,16.3-15.2,22.1c-7.6,5.8-17,8.7-28.4,8.7c-13.7,0-24.7-4.6-33-13.8
				c-8.3-9.2-12.5-21.6-12.5-37.3c0-14.9,4.2-27.2,12.6-37s19.8-14.6,34.2-14.6c14.1,0,24.9,4.8,32.6,14.5
				c7.7,9.6,11.5,22,11.5,37.1l-0.1,2.5h-67.7c0,6.7,0.6,12.1,1.9,16.1c1.3,4,3.8,7.6,7.6,10.5c3.8,3,8.5,4.5,14.2,4.5
				C485.4,163.1,492.8,157.7,496.6,147.1z M495.3,117.6c-0.1-7.1-2.2-12.9-6.4-17.4s-9.4-6.7-15.6-6.7c-6.1,0-11.2,2.1-15.3,6.3
				s-6.5,10.1-7.2,17.8H495.3z"/>
		</g>
	</g>
	<g class="st4">
		<path class="st5" d="M840.8,178.5h-23.3l-50.6-85.2c-0.8-1.3-2.1-3.4-3.8-6.3c-0.8-1.3-2-3.4-3.6-6.2v97.7h-19.3V45.2h26.6
			l46.7,78.5c0.4,0.7,3.2,5.4,8.5,14.4V45.2h18.9V178.5z"/>
	</g>
	<g class="st4">
		<path class="st3" d="M840.8,178.5h-23.3l-50.6-85.2c-0.8-1.3-2.1-3.4-3.8-6.3c-0.8-1.3-2-3.4-3.6-6.2v97.7h-19.3V45.2h26.6
			l46.7,78.5c0.4,0.7,3.2,5.4,8.5,14.4V45.2h18.9V178.5z"/>
	</g>
	<path class="st6" d="M630.4,14c-8.9,0-16.1,7.2-16.1,16.1V95c0,8.9,7.2,16.1,16.1,16.1s16.1-7.2,16.1-16.1V30.1
		C646.5,21.2,639.3,14,630.4,14z"/>
	<path class="st6" d="M684.3,56.6c-6.5-5.9-16.5-5.6-22.6,0.7c-6,6.1-6.4,16.5,1.1,23.4c19.8,18.1,21.3,48.8,3.2,68.7
		c-9.2,10-22.1,15.8-35.7,15.9c-24.7,0.1-43.7-18.2-47.6-39.7c-3.1-16.5,2.5-33.5,15-44.9c7.5-6.9,7.1-17.3,1.2-23.4
		c-6.2-6.3-16.2-6.6-22.7-0.6c-33.1,30-35.6,81.1-5.6,114.2c15.3,16.9,37.1,26.5,59.9,26.5c41,0,74.5-31.6,79.7-69.8
		C713.9,101.2,704.2,74.6,684.3,56.6z"/>
</g>
<g id="Capa_1_copia">
	<title>Mesa de trabajo 1</title>
	<g>
		<g class="st2">
			<path class="st7" d="M125.8,110.3v68.2h-10.6l-7.3-18c-7.7,13.3-19.8,20-36,20c-18.2,0-31.7-6.9-40.7-20.7
				c-9-13.8-13.4-29.8-13.4-47.9c0-19.2,5-35.5,15-48.8c10-13.3,24-20,41.9-20c13.4,0,24.4,3.9,33.1,11.7
				c8.7,7.8,14.1,17.5,16.4,29.1l-20.9,3.7c-3.9-16.3-13.2-24.4-28-24.4c-9.4,0-17.1,3.8-23.1,11.5c-6,7.7-8.9,19.5-8.9,35.4
				c0,33.7,10.5,50.5,31.6,50.5c8.2,0,15-2.8,20.4-8.5s8.1-13.2,8.1-22.5H75.7v-19.3H125.8z"/>
			<path class="st7" d="M236.2,178.5H215c-1.9-6-3-12.6-3.4-19.9c-5.9,14.6-17.1,22-33.4,22c-9.8,0-17.7-2.9-23.7-8.6
				s-8.9-13-8.9-21.7c0-22.7,19.9-34,59.7-34c1.6,0,3.7,0,6.3,0.1v-7.4c0-10.2-7-15.3-20.9-15.3c-13.5,0-21.2,5.1-23,15.3l-18.9-2.8
				c1-8.2,5.3-15,12.7-20.3c7.4-5.3,18.2-8,32.2-8c7.6,0,13.8,0.6,18.7,1.9c4.8,1.3,8.9,3.4,12.2,6.4s5.6,6.3,6.9,9.9
				c1.3,3.5,1.9,9.6,1.9,18v44.5C233.2,165,234.2,171.7,236.2,178.5z M211.6,128.3c-28.8,0-43.2,6.9-43.2,20.6
				c0,4.1,1.4,7.6,4.3,10.5c2.9,2.9,7.3,4.3,13.1,4.3c8.5,0,14.9-2.7,19.2-8.1c4.3-5.4,6.5-11.5,6.5-18.3V128.3z"/>
			<path class="st7" d="M407.2,178.5h-23.3v-61.4c0-12.8-5.7-19.1-17-19.1c-6.6,0-11.8,2.4-15.8,7.2c-3.9,4.8-5.9,12-5.9,21.6v51.8
				h-23.6v-61.4c0-13-5.3-19.4-15.9-19.4c-6.4,0-11.9,2.6-16.3,7.8c-4.4,5.2-6.6,12.3-6.6,21.3v51.8h-22.9V79.9h21.6v21
				c7-15.4,18-23,32.9-23c14.5,0,24,7.7,28.3,23c7.9-15.4,18.9-23,32.9-23c9.5,0,17.2,3,22.9,8.9c5.8,5.9,8.7,13.3,8.7,22.1V178.5z"
				/>
			<path class="st7" d="M496.6,147.1l20.1,2.7c-2.6,8.9-7.7,16.3-15.2,22.1c-7.6,5.8-17,8.7-28.4,8.7c-13.7,0-24.7-4.6-33-13.8
				c-8.3-9.2-12.5-21.6-12.5-37.3c0-14.9,4.2-27.2,12.6-37s19.8-14.6,34.2-14.6c14.1,0,24.9,4.8,32.6,14.5
				c7.7,9.6,11.5,22,11.5,37.1l-0.1,2.5h-67.7c0,6.7,0.6,12.1,1.9,16.1c1.3,4,3.8,7.6,7.6,10.5c3.8,3,8.5,4.5,14.2,4.5
				C485.4,163.1,492.8,157.7,496.6,147.1z M495.3,117.6c-0.1-7.1-2.2-12.9-6.4-17.4s-9.4-6.7-15.6-6.7c-6.1,0-11.2,2.1-15.3,6.3
				s-6.5,10.1-7.2,17.8H495.3z"/>
		</g>
		<g class="st2">
			<path class="st7" d="M125.8,110.3v68.2h-10.6l-7.3-18c-7.7,13.3-19.8,20-36,20c-18.2,0-31.7-6.9-40.7-20.7
				c-9-13.8-13.4-29.8-13.4-47.9c0-19.2,5-35.5,15-48.8c10-13.3,24-20,41.9-20c13.4,0,24.4,3.9,33.1,11.7
				c8.7,7.8,14.1,17.5,16.4,29.1l-20.9,3.7c-3.9-16.3-13.2-24.4-28-24.4c-9.4,0-17.1,3.8-23.1,11.5c-6,7.7-8.9,19.5-8.9,35.4
				c0,33.7,10.5,50.5,31.6,50.5c8.2,0,15-2.8,20.4-8.5s8.1-13.2,8.1-22.5H75.7v-19.3H125.8z"/>
			<path class="st7" d="M236.2,178.5H215c-1.9-6-3-12.6-3.4-19.9c-5.9,14.6-17.1,22-33.4,22c-9.8,0-17.7-2.9-23.7-8.6
				s-8.9-13-8.9-21.7c0-22.7,19.9-34,59.7-34c1.6,0,3.7,0,6.3,0.1v-7.4c0-10.2-7-15.3-20.9-15.3c-13.5,0-21.2,5.1-23,15.3l-18.9-2.8
				c1-8.2,5.3-15,12.7-20.3c7.4-5.3,18.2-8,32.2-8c7.6,0,13.8,0.6,18.7,1.9c4.8,1.3,8.9,3.4,12.2,6.4s5.6,6.3,6.9,9.9
				c1.3,3.5,1.9,9.6,1.9,18v44.5C233.2,165,234.2,171.7,236.2,178.5z M211.6,128.3c-28.8,0-43.2,6.9-43.2,20.6
				c0,4.1,1.4,7.6,4.3,10.5c2.9,2.9,7.3,4.3,13.1,4.3c8.5,0,14.9-2.7,19.2-8.1c4.3-5.4,6.5-11.5,6.5-18.3V128.3z"/>
			<path class="st7" d="M407.2,178.5h-23.3v-61.4c0-12.8-5.7-19.1-17-19.1c-6.6,0-11.8,2.4-15.8,7.2c-3.9,4.8-5.9,12-5.9,21.6v51.8
				h-23.6v-61.4c0-13-5.3-19.4-15.9-19.4c-6.4,0-11.9,2.6-16.3,7.8c-4.4,5.2-6.6,12.3-6.6,21.3v51.8h-22.9V79.9h21.6v21
				c7-15.4,18-23,32.9-23c14.5,0,24,7.7,28.3,23c7.9-15.4,18.9-23,32.9-23c9.5,0,17.2,3,22.9,8.9c5.8,5.9,8.7,13.3,8.7,22.1V178.5z"
				/>
			<path class="st7" d="M496.6,147.1l20.1,2.7c-2.6,8.9-7.7,16.3-15.2,22.1c-7.6,5.8-17,8.7-28.4,8.7c-13.7,0-24.7-4.6-33-13.8
				c-8.3-9.2-12.5-21.6-12.5-37.3c0-14.9,4.2-27.2,12.6-37s19.8-14.6,34.2-14.6c14.1,0,24.9,4.8,32.6,14.5
				c7.7,9.6,11.5,22,11.5,37.1l-0.1,2.5h-67.7c0,6.7,0.6,12.1,1.9,16.1c1.3,4,3.8,7.6,7.6,10.5c3.8,3,8.5,4.5,14.2,4.5
				C485.4,163.1,492.8,157.7,496.6,147.1z M495.3,117.6c-0.1-7.1-2.2-12.9-6.4-17.4s-9.4-6.7-15.6-6.7c-6.1,0-11.2,2.1-15.3,6.3
				s-6.5,10.1-7.2,17.8H495.3z"/>
		</g>
	</g>
	<g class="st2">
		<path class="st8" d="M840.8,178.5h-23.3l-50.6-85.2c-0.8-1.3-2.1-3.4-3.8-6.3c-0.8-1.3-2-3.4-3.6-6.2v97.7h-19.3V45.2h26.6
			l46.7,78.5c0.4,0.7,3.2,5.4,8.5,14.4V45.2h18.9V178.5z"/>
	</g>
	<g class="st2">
		<path class="st9" d="M840.8,178.5h-23.3l-50.6-85.2c-0.8-1.3-2.1-3.4-3.8-6.3c-0.8-1.3-2-3.4-3.6-6.2v97.7h-19.3V45.2h26.6
			l46.7,78.5c0.4,0.7,3.2,5.4,8.5,14.4V45.2h18.9V178.5z"/>
	</g>
	<path class="st8" d="M630.4,14c-8.9,0-16.1,7.2-16.1,16.1V95c0,8.9,7.2,16.1,16.1,16.1s16.1-7.2,16.1-16.1V30.1
		C646.5,21.2,639.3,14,630.4,14z"/>
	<path class="st8" d="M684.3,56.6c-6.5-5.9-16.5-5.6-22.6,0.7c-6,6.1-6.4,16.5,1.1,23.4c19.8,18.1,21.3,48.8,3.2,68.7
		c-9.2,10-22.1,15.8-35.7,15.9c-24.7,0.1-43.7-18.2-47.6-39.7c-3.1-16.5,2.5-33.5,15-44.9c7.5-6.9,7.1-17.3,1.2-23.4
		c-6.2-6.3-16.2-6.6-22.7-0.6c-33.1,30-35.6,81.1-5.6,114.2c15.3,16.9,37.1,26.5,59.9,26.5c41,0,74.5-31.6,79.7-69.8
		C713.9,101.2,704.2,74.6,684.3,56.6z"/>
</g>
</svg>
