<?xml version="1.0" standalone="no"?>
<!DOCTYPE svg PUBLIC "-//W3C//DTD SVG 20010904//EN"
 "http://www.w3.org/TR/2001/REC-SVG-20010904/DTD/svg10.dtd">
<svg version="1.0" xmlns="http://www.w3.org/2000/svg"
 width="700.000000pt" height="700.000000pt" viewBox="0 0 700.000000 700.000000"
 preserveAspectRatio="xMidYMid meet">
<metadata>
Created by potrace 1.11, written by Peter Selinger 2001-2013
</metadata>
<g transform="translate(0.000000,700.000000) scale(0.100000,-0.100000)"
fill="#000000" stroke="none">
<path d="M3405 6994 c-214 -47 -368 -162 -453 -336 -22 -45 -46 -108 -53 -138
-10 -44 -13 -326 -13 -1370 1 -723 4 -1331 8 -1350 19 -99 69 -203 136 -283
118 -142 314 -229 495 -221 282 14 524 224 581 506 4 18 8 616 8 1328 2 1442
4 1385 -65 1527 -41 82 -128 186 -197 233 -64 43 -156 82 -226 95 -70 13 -183
17 -221 9z"/>
<path d="M1790 5532 c-182 -26 -290 -92 -490 -299 -170 -176 -297 -338 -426
-543 -43 -69 -194 -360 -194 -374 0 -3 -11 -29 -24 -58 -57 -126 -163 -484
-181 -608 -3 -25 -8 -52 -10 -60 -7 -28 -21 -145 -31 -270 -13 -145 -5 -553
10 -579 2 -3 7 -35 10 -71 4 -36 13 -96 21 -135 8 -38 16 -81 19 -95 2 -14 14
-63 26 -110 111 -433 310 -828 599 -1190 137 -172 423 -442 581 -550 19 -13
37 -27 40 -30 8 -10 140 -94 215 -137 235 -136 477 -240 722 -308 121 -33 301
-72 368 -80 38 -4 122 -16 155 -22 14 -2 131 -5 260 -7 254 -4 348 3 560 39
285 49 527 128 810 263 607 290 1134 817 1435 1437 158 324 240 598 289 958
19 138 25 426 13 612 -7 121 -39 331 -68 451 -12 49 -22 94 -23 99 -35 157
-151 457 -254 655 -90 173 -292 469 -408 595 -146 160 -268 275 -348 327 -129
83 -324 114 -474 74 -276 -73 -463 -311 -464 -590 0 -70 5 -104 26 -186 23
-88 104 -204 222 -320 373 -367 568 -822 568 -1330 0 -411 -126 -787 -377
-1124 -55 -74 -238 -265 -312 -326 -143 -117 -390 -252 -576 -314 -202 -67
-360 -91 -589 -91 -231 1 -350 19 -555 84 -400 128 -752 401 -990 769 -60 93
-156 294 -190 397 -31 93 -72 261 -79 325 -30 250 -25 442 19 650 76 367 259
698 531 960 42 41 95 97 116 124 117 147 159 335 117 523 -18 81 -68 179 -128
250 -51 62 -181 158 -229 169 -15 4 -31 10 -37 14 -26 20 -211 42 -275 32z"/>
</g>
</svg>
